HIERARCHY
ROOT Hips
{
  OFFSET 0 93.5 0
  CHANNELS 6 Xposition Yposition Zposition Zrotation Xrotation Yrotation
  JOINT Spine
  {
    OFFSET 0 8 0
    CHANNELS 6 Xposition Yposition Zposition Zrotation Xrotation Yrotation
    JOINT Spine1
    {
      OFFSET 0 8 0
      CHANNELS 6 Xposition Yposition Zposition Zrotation Xrotation Yrotation
      JOINT Spine2
      {
        OFFSET 0 8 0
        CHANNELS 6 Xposition Yposition Zposition Zrotation Xrotation Yrotation
        JOINT Spine3
        {
          OFFSET 0 8 0
          CHANNELS 6 Xposition Yposition Zposition Zrotation Xrotation Yrotation
          JOINT Neck
          {
            OFFSET 0 17 0
            CHANNELS 6 Xposition Yposition Zposition Zrotation Xrotation Yrotation
            JOINT Head
            {
              OFFSET 0 10.8 0
              CHANNELS 6 Xposition Yposition Zposition Zrotation Xrotation Yrotation
              End Site
              {
                OFFSET 0 20.25 0
              }
            }
          }
          JOINT LeftShoulder
          {
            OFFSET 5 17 0
            CHANNELS 6 Xposition Yposition Zposition Zrotation Xrotation Yrotation
            JOINT LeftShoulder2
            {
              OFFSET 6.45 0 0
              CHANNELS 6 Xposition Yposition Zposition Zrotation Xrotation Yrotation
              JOINT LeftArm
              {
                OFFSET 6.45 0 0
                CHANNELS 6 Xposition Yposition Zposition Zrotation Xrotation Yrotation
                JOINT LeftForeArm
                {
                  OFFSET 0 -32.4 -2
                  CHANNELS 6 Xposition Yposition Zposition Zrotation Xrotation Yrotation
                  JOINT LeftHand
                  {
                    OFFSET 0 -25.65 2
                    CHANNELS 6 Xposition Yposition Zposition Zrotation Xrotation Yrotation
                    JOINT LeftHandThumb1
                    {
                      OFFSET -0.49999 -1.50001 2.65
                      CHANNELS 6 Xposition Yposition Zposition Zrotation Xrotation Yrotation
                      JOINT LeftHandThumb2
                      {
                        OFFSET -1.31329e-05 -3.8 3.7
                        CHANNELS 6 Xposition Yposition Zposition Zrotation Xrotation Yrotation
                        JOINT LeftHandThumb3
                        {
                          OFFSET 0 -3 2.7
                          CHANNELS 6 Xposition Yposition Zposition Zrotation Xrotation Yrotation
                          End Site
                          {
                            OFFSET 0 -2.3 1.8
                          }
                        }
                      }
                    }
                    JOINT LeftHandIndex
                    {
                      OFFSET 0 -1.9 1.6
                      CHANNELS 6 Xposition Yposition Zposition Zrotation Xrotation Yrotation
                      JOINT LeftHandIndex1
                      {
                        OFFSET -1.34264e-05 -8.3 1.9
                        CHANNELS 6 Xposition Yposition Zposition Zrotation Xrotation Yrotation
                        JOINT LeftHandIndex2
                        {
                          OFFSET 1.49654e-05 -4.5 0
                          CHANNELS 6 Xposition Yposition Zposition Zrotation Xrotation Yrotation
                          JOINT LeftHandIndex3
                          {
                            OFFSET -1.17358e-05 -3.4 0
                            CHANNELS 6 Xposition Yposition Zposition Zrotation Xrotation Yrotation
                            End Site
                            {
                              OFFSET 0 -2.6 0
                            }
                          }
                        }
                      }
                    }
                    JOINT LeftHandMiddle
                    {
                      OFFSET -0.249992 -2.2 0.4
                      CHANNELS 6 Xposition Yposition Zposition Zrotation Xrotation Yrotation
                      JOINT LeftHandMiddle1
                      {
                        OFFSET 0 -8.3 1
                        CHANNELS 6 Xposition Yposition Zposition Zrotation Xrotation Yrotation
                        JOINT LeftHandMiddle2
                        {
                          OFFSET 0 -4.64999 0
                          CHANNELS 6 Xposition Yposition Zposition Zrotation Xrotation Yrotation
                          JOINT LeftHandMiddle3
                          {
                            OFFSET -1.14004e-05 -3.3 0
                            CHANNELS 6 Xposition Yposition Zposition Zrotation Xrotation Yrotation
                            End Site
                            {
                              OFFSET 0 -2.7 0
                            }
                          }
                        }
                      }
                    }
                    JOINT LeftHandRing
                    {
                      OFFSET -0.499992 -2.15001 -0.8
                      CHANNELS 6 Xposition Yposition Zposition Zrotation Xrotation Yrotation
                      JOINT LeftHandRing1
                      {
                        OFFSET -1.15255e-05 -7.75 -0.2
                        CHANNELS 6 Xposition Yposition Zposition Zrotation Xrotation Yrotation
                        JOINT LeftHandRing2
                        {
                          OFFSET 0 -3.8 0
                          CHANNELS 6 Xposition Yposition Zposition Zrotation Xrotation Yrotation
                          JOINT LeftHandRing3
                          {
                            OFFSET 0 -3.4 0
                            CHANNELS 6 Xposition Yposition Zposition Zrotation Xrotation Yrotation
                            End Site
                            {
                              OFFSET 0 -2.6 0
                            }
                          }
                        }
                      }
                    }
                    JOINT LeftHandPinky
                    {
                      OFFSET -0.749991 -1.75001 -1.85
                      CHANNELS 6 Xposition Yposition Zposition Zrotation Xrotation Yrotation
                      JOINT LeftHandPinky1
                      {
                        OFFSET 0 -7.15 -1
                        CHANNELS 6 Xposition Yposition Zposition Zrotation Xrotation Yrotation
                        JOINT LeftHandPinky2
                        {
                          OFFSET 0 -3 0
                          CHANNELS 6 Xposition Yposition Zposition Zrotation Xrotation Yrotation
                          JOINT LeftHandPinky3
                          {
                            OFFSET 0 -2.35 0
                            CHANNELS 6 Xposition Yposition Zposition Zrotation Xrotation Yrotation
                            End Site
                            {
                              OFFSET 0 -2.1 0
                            }
                          }
                        }
                      }
                    }
                  }
                }
              }
            }
          }
          JOINT RightShoulder
          {
            OFFSET -5 17 0
            CHANNELS 6 Xposition Yposition Zposition Zrotation Xrotation Yrotation
            JOINT RightShoulder2
            {
              OFFSET -6.45 0 0
              CHANNELS 6 Xposition Yposition Zposition Zrotation Xrotation Yrotation
              JOINT RightArm
              {
                OFFSET -6.45 0 0
                CHANNELS 6 Xposition Yposition Zposition Zrotation Xrotation Yrotation
                JOINT RightForeArm
                {
                  OFFSET 0 -32.4 -2
                  CHANNELS 6 Xposition Yposition Zposition Zrotation Xrotation Yrotation
                  JOINT RightHand
                  {
                    OFFSET 0 -25.65 2
                    CHANNELS 6 Xposition Yposition Zposition Zrotation Xrotation Yrotation
                    JOINT RightHandThumb1
                    {
                      OFFSET 0.49999 -1.50001 2.65
                      CHANNELS 6 Xposition Yposition Zposition Zrotation Xrotation Yrotation
                      JOINT RightHandThumb2
                      {
                        OFFSET 1.31329e-05 -3.8 3.7
                        CHANNELS 6 Xposition Yposition Zposition Zrotation Xrotation Yrotation
                        JOINT RightHandThumb3
                        {
                          OFFSET 0 -3 2.7
                          CHANNELS 6 Xposition Yposition Zposition Zrotation Xrotation Yrotation
                          End Site
                          {
                            OFFSET 0 -2.3 1.8
                          }
                        }
                      }
                    }
                    JOINT RightHandIndex
                    {
                      OFFSET 0 -1.9 1.6
                      CHANNELS 6 Xposition Yposition Zposition Zrotation Xrotation Yrotation
                      JOINT RightHandIndex1
                      {
                        OFFSET 1.34264e-05 -8.3 1.9
                        CHANNELS 6 Xposition Yposition Zposition Zrotation Xrotation Yrotation
                        JOINT RightHandIndex2
                        {
                          OFFSET -1.49654e-05 -4.5 0
                          CHANNELS 6 Xposition Yposition Zposition Zrotation Xrotation Yrotation
                          JOINT RightHandIndex3
                          {
                            OFFSET 1.17505e-05 -3.4 0
                            CHANNELS 6 Xposition Yposition Zposition Zrotation Xrotation Yrotation
                            End Site
                            {
                              OFFSET 0 -2.6 0
                            }
                          }
                        }
                      }
                    }
                    JOINT RightHandMiddle
                    {
                      OFFSET 0.249992 -2.2 0.4
                      CHANNELS 6 Xposition Yposition Zposition Zrotation Xrotation Yrotation
                      JOINT RightHandMiddle1
                      {
                        OFFSET 0 -8.3 1
                        CHANNELS 6 Xposition Yposition Zposition Zrotation Xrotation Yrotation
                        JOINT RightHandMiddle2
                        {
                          OFFSET 0 -4.64999 0
                          CHANNELS 6 Xposition Yposition Zposition Zrotation Xrotation Yrotation
                          JOINT RightHandMiddle3
                          {
                            OFFSET 1.14053e-05 -3.3 0
                            CHANNELS 6 Xposition Yposition Zposition Zrotation Xrotation Yrotation
                            End Site
                            {
                              OFFSET 0 -2.7 0
                            }
                          }
                        }
                      }
                    }
                    JOINT RightHandRing
                    {
                      OFFSET 0.499992 -2.15001 -0.8
                      CHANNELS 6 Xposition Yposition Zposition Zrotation Xrotation Yrotation
                      JOINT RightHandRing1
                      {
                        OFFSET 1.15255e-05 -7.75 -0.2
                        CHANNELS 6 Xposition Yposition Zposition Zrotation Xrotation Yrotation
                        JOINT RightHandRing2
                        {
                          OFFSET 0 -3.8 0
                          CHANNELS 6 Xposition Yposition Zposition Zrotation Xrotation Yrotation
                          JOINT RightHandRing3
                          {
                            OFFSET 0 -3.4 0
                            CHANNELS 6 Xposition Yposition Zposition Zrotation Xrotation Yrotation
                            End Site
                            {
                              OFFSET 0 -2.6 0
                            }
                          }
                        }
                      }
                    }
                    JOINT RightHandPinky
                    {
                      OFFSET 0.749991 -1.75001 -1.85
                      CHANNELS 6 Xposition Yposition Zposition Zrotation Xrotation Yrotation
                      JOINT RightHandPinky1
                      {
                        OFFSET 0 -7.15 -1
                        CHANNELS 6 Xposition Yposition Zposition Zrotation Xrotation Yrotation
                        JOINT RightHandPinky2
                        {
                          OFFSET 0 -3 0
                          CHANNELS 6 Xposition Yposition Zposition Zrotation Xrotation Yrotation
                          JOINT RightHandPinky3
                          {
                            OFFSET 0 -2.35 0
                            CHANNELS 6 Xposition Yposition Zposition Zrotation Xrotation Yrotation
                            End Site
                            {
                              OFFSET 0 -2.1 0
                            }
                          }
                        }
                      }
                    }
                  }
                }
              }
            }
          }
        }
      }
    }
  }
  JOINT LeftUpLeg
  {
    OFFSET 8 0 0
    CHANNELS 6 Xposition Yposition Zposition Zrotation Xrotation Yrotation
    JOINT LeftLeg
    {
      OFFSET 0 -45 -1
      CHANNELS 6 Xposition Yposition Zposition Zrotation Xrotation Yrotation
      JOINT LeftFoot
      {
        OFFSET 0 -41 -2
        CHANNELS 6 Xposition Yposition Zposition Zrotation Xrotation Yrotation
        JOINT LeftToeBase
        {
          OFFSET 0 -7.5 12.5
          CHANNELS 6 Xposition Yposition Zposition Zrotation Xrotation Yrotation
          JOINT LeftFootToe
          {
            OFFSET 0 0 4
            CHANNELS 6 Xposition Yposition Zposition Zrotation Xrotation Yrotation
            End Site
            {
              OFFSET 0 0 0
            }
          }
        }
      }
    }
  }
  JOINT RightUpLeg
  {
    OFFSET -8 0 0
    CHANNELS 6 Xposition Yposition Zposition Zrotation Xrotation Yrotation
    JOINT RightLeg
    {
      OFFSET 0 -45 -1
      CHANNELS 6 Xposition Yposition Zposition Zrotation Xrotation Yrotation
      JOINT RightFoot
      {
        OFFSET 0 -41 -2
        CHANNELS 6 Xposition Yposition Zposition Zrotation Xrotation Yrotation
        JOINT RightToeBase
        {
          OFFSET 0 -7.5 12.5
          CHANNELS 6 Xposition Yposition Zposition Zrotation Xrotation Yrotation
          JOINT RightFootToe
          {
            OFFSET 0 0 4
            CHANNELS 6 Xposition Yposition Zposition Zrotation Xrotation Yrotation
            End Site
            {
              OFFSET 0 0 0
            }
          }
        }
      }
    }
  }
}
MOTION
Frames:	3
Frame Time:	0.0111111
-61.4522 32.0112 -84.6255 -0.54518 12.3738 64.5975 7.10543e-15 8 0 -2.95728 10.2688 -9.85259 0 8 0 -7.68842 17.472 14.7957 0 8 0 -0.105684 3.55664 1.40791 7.10543e-15 8 -1.42109e-14 0.171702 3.08246 0.803774 7.10543e-15 17 0 -1.62902 -9.3405 2.94499 -1.42109e-14 10.8 -1.42109e-14 -3.13395 -22.0232 6.68849 5 17 0 -7.39017 -3.73075 13.8152 6.45 7.10543e-15 -1.42109e-14 1.73675 4.38784 -4.63593 6.45 -7.10543e-15 1.42109e-14 12.2503 -1.09897 -3.42439 0 -32.4 -2 -140.529 -45.9666 -130.397 0 -25.65 2 42.4171 -16.0891 -49.9906 -0.5 -1.5 2.65 -12.0534 -14.2191 9.91064 0 -3.8 3.7 0.0959572 16.9333 -0.0484028 0 -3 2.7 0.000319666 21.0002 -0.0074435 0 -1.9 1.6 6.4605e-16 4.96962e-16 9.54166e-15 0 -8.3 1.9 -23.9127 9.14704 2.16738 0 -4.5 0 -14.0008 -6.72789e-05 0.000134949 0 -3.4 -1.42109e-14 -11.7921 0.000727747 9.43111e-05 -0.25 -2.2 0.4 6.4605e-16 -1.98785e-16 9.54166e-15 0 -8.3 1 -18.2672 7.92975 1.46914 -1.42109e-14 -4.65 7.10543e-15 -12.5975 -3.62531e-07 1.8097e-06 0 -3.3 0 -10.771 2.46809e-06 -5.05173e-06 -0.5 -2.15 -0.8 6.4605e-16 6.21202e-16 9.54166e-15 0 -7.75 -0.2 -6.6883 5.92172 0.446283 0 -3.8 7.10543e-15 -6.04357 -0.00370213 -0.0021315 0 -3.4 -7.10543e-15 -5.5803 -0.00323596 -0.000400203 -0.75 -1.75 -1.85 6.4605e-16 4.96962e-16 9.54166e-15 0 -7.15 -1 -0.389406 5.36974 0.0766583 -1.42109e-14 -3 1.42109e-14 0.0137927 4.66735e-06 -4.98218e-10 0 -2.35 -7.10543e-15 0.0119053 1.34013e-06 -1.3713e-10 -5 17 0 2.65715 -1.06679 -5.40516 -6.45 7.10543e-15 -1.42109e-14 3.3028 6.98134 -0.283306 -6.45 0 -1.42109e-14 3.81493 -38.8688 50.4061 0 -32.4 -2 3.91304 -38.0578 -6.12128 0 -25.65 2 -23.1192 -3.08283 1.73503 0.5 -1.5 2.65 6.26355 -19.8566 7.4835 0 -3.8 3.7 0.123237 28.3627 -0.032196 0 -3 2.7 0.072565 22.7679 -0.0517752 1.42109e-14 -1.9 1.6 7.95139e-16 3.85145e-16 -0 0 -8.3 1.9 10.2113 21.9534 -2.23064 1.42109e-14 -4.5 0 43.2525 0.0188979 0.196379 0 -3.4 0 30.1723 0.0714961 0.100298 0.25 -2.2 0.4 7.95139e-16 3.85145e-16 -0 1.42109e-14 -8.3 1 37.2495 23.6402 -9.29962 0 -4.65 0 71.844 0.0960842 0.0323765 0 -3.3 -1.77636e-15 54.1896 0.0996038 -0.0709002 0.5 -2.15 -0.8 7.95139e-16 3.85145e-16 -0 0 -7.75 -0.2 53.0489 17.6935 -11.6706 0 -3.8 0 50.1857 0.0680972 0.029081 0 -3.4 1.77636e-15 34.6489 0.0528098 -0.0101329 0.75 -1.75 -1.85 7.95139e-16 3.85145e-16 -0 0 -7.15 -1 49.3333 13.3601 -9.01805 -1.42109e-14 -3 0 67.484 0.0112789 0.00654306 -3.55271e-15 -2.35 0 49.1363 0.0130795 -0.00331581 8 3.55271e-15 0 154.1 -66.1652 156.758 0 -45 -1 -161.021 53.4614 172.769 1.42109e-14 -41 -2 0.860414 -17.7847 -19.4852 0 -7.5 12.5 -0 -2.42657e-19 -0 7.10543e-15 0 4 0.84519 4.36268 8.74607e-05 -8 0 0 -116.342 -64.724 -104.312 1.06581e-14 -45 -1 176.054 24.2762 -176.3 7.10543e-15 -41 -2 -11.8652 -10.1052 4.58547 0 -7.5 12.5 6.36111e-15 -54.5533 -0 -7.10543e-15 0 4 -1.44016 54.5551 0.00745601 
-61.4313 32.0408 -84.623 -0.616056 12.3834 64.6294 -7.10543e-15 8 0 -2.90854 10.264 -9.85212 0 8 0 -7.71243 17.4851 14.7785 1.42109e-14 8 1.42109e-14 -0.100575 3.54921 1.41248 -7.10543e-15 8 1.42109e-14 0.179815 3.08904 0.804069 -1.42109e-14 17 0 -1.58423 -9.32648 2.97877 1.42109e-14 10.8 0 -3.01673 -21.9881 6.78289 5 17 0 -7.28176 -3.72177 13.828 6.45 -1.42109e-14 0 1.74618 4.36559 -4.65092 6.45 3.55271e-15 -1.42109e-14 12.3199 -1.04183 -3.42954 0 -32.4 -2 -140.438 -45.9609 -130.24 0 -25.65 2 42.5374 -16.2531 -49.842 -0.5 -1.5 2.65 -12.0619 -14.1988 9.89487 0 -3.8 3.7 0.0960018 16.9838 -0.0484158 0 -3 2.7 0.000322993 21.0241 -0.0074447 0 -1.9 1.6 -1.49089e-16 1.06847e-15 3.18055e-15 0 -8.3 1.9 -23.9162 9.13704 2.16625 1.42109e-14 -4.5 0 -14.0437 -6.72789e-05 0.000134949 0 -3.4 -1.42109e-14 -11.8228 0.000727747 9.43111e-05 -0.25 -2.2 0.4 -1.49089e-16 3.72721e-16 3.18055e-15 0 -8.3 1 -18.2717 7.93307 1.469 1.42109e-14 -4.65 1.42109e-14 -12.6421 -3.62531e-07 1.8097e-06 0 -3.3 0 -10.8039 2.46809e-06 -5.05173e-06 -0.5 -2.15 -0.8 -1.49089e-16 1.16786e-15 3.18055e-15 0 -7.75 -0.2 -6.69265 5.95481 0.4492 1.42109e-14 -3.8 0 -6.12954 -0.00370213 -0.0021315 0 -3.4 0 -5.65351 -0.00323596 -0.000400203 -0.75 -1.75 -1.85 -1.49089e-16 1.06847e-15 3.18055e-15 0 -7.15 -1 -0.396999 5.42113 0.0782527 -1.42109e-14 -3 0 0.013404 4.66735e-06 -4.98215e-10 1.42109e-14 -2.35 0 0.0117341 1.34013e-06 -1.37139e-10 -5 17 0 2.7464 -1.10521 -5.41766 -6.45 3.55271e-15 0 3.32133 6.9805 -0.28519 -6.45 0 0 3.58895 -39.1679 49.7454 0 -32.4 -2 4.58533 -39.5786 -5.4922 0 -25.65 2 -24.4517 -3.67268 1.27491 0.5 -1.5 2.65 6.19505 -20.5354 6.9351 0 -3.8 3.7 0.109291 28.0872 -0.0256018 0 -3 2.7 0.0878427 23.2626 -0.0601337 1.42109e-14 -1.9 1.6 -7.95139e-16 -1.2854e-15 4.81432e-17 0 -8.3 1.9 11.0214 22.5077 -2.44948 -1.42109e-14 -4.5 -7.10543e-15 45.2465 0.0333066 0.15532 7.10543e-15 -3.4 0 31.4215 0.0689982 0.0736473 0.25 -2.2 0.4 -7.95139e-16 -1.2854e-15 4.81432e-17 0 -8.3 1 39.918 23.5036 -10.0278 0 -4.65 -3.55271e-15 72.7436 0.0804681 0.0177449 3.55271e-15 -3.3 -1.77636e-15 55.2748 0.0753363 -0.0696847 0.5 -2.15 -0.8 -7.95139e-16 -1.2854e-15 4.81432e-17 0 -7.75 -0.2 55.9141 17.09 -12.2304 -1.42109e-14 -3.8 -1.77636e-15 50.9819 0.0711055 0.0215225 -3.55271e-15 -3.4 -1.77636e-15 35.2 0.0557459 -0.0165993 0.75 -1.75 -1.85 -7.95139e-16 -1.2854e-15 4.81432e-17 -1.42109e-14 -7.15 -1 52.8373 13.1237 -9.81675 0 -3 3.55271e-15 67.5835 -0.0094408 0.00175212 0 -2.35 0 49.2366 -0.00415129 0.0100948 8 7.10543e-15 -1.42109e-14 154.135 -66.1586 156.803 0 -45 -1 -161.004 53.4647 172.768 0 -41 -2 0.874353 -17.8369 -19.4961 -1.42109e-14 -7.5 12.5 1.94126e-19 -1.94126e-19 6.36111e-15 0 0 4 0.805005 4.34951 8.25057e-05 -8 3.55271e-15 0 -116.257 -64.7343 -104.235 7.10543e-15 -45 -1 176.064 24.3059 -176.315 3.55271e-15 -41 -2 -11.8386 -10.1414 4.63087 0 -7.5 12.5 6.36111e-15 -54.5833 -0 0 -4.33681e-19 4 -1.50294 54.5852 0.00746695 
-61.406 32.0634 -84.6229 -0.686921 12.3918 64.6603 0 8 0 -2.85856 10.2607 -9.8518 1.42109e-14 8 0 -7.73751 17.498 14.7631 0 8 -1.42109e-14 -0.0955204 3.54193 1.41852 1.42109e-14 8 0 0.187844 3.09436 0.804381 -7.10543e-15 17 1.42109e-14 -1.53955 -9.31551 3.00883 0 10.8 0 -2.90075 -21.9599 6.86814 5 17 0 -7.17368 -3.71064 13.8493 6.45 -7.10543e-15 0 1.75442 4.34326 -4.66169 6.45 0 0 12.3931 -0.994459 -3.45236 0 -32.4 -2 -140.356 -45.9377 -130.084 0 -25.65 2 42.6688 -16.4188 -49.7109 -0.5 -1.5 2.65 -12.0756 -14.1823 9.8836 0 -3.8 3.7 0.0960479 17.036 -0.0484293 0 -3 2.7 0.000326448 21.0489 -0.00744594 0 -1.9 1.6 -3.23025e-16 -2.48481e-17 -6.36111e-15 -1.42109e-14 -8.3 1.9 -23.922 9.12973 2.16576 0 -4.5 7.10543e-15 -14.0857 -6.72789e-05 0.000134949 0 -3.4 7.10543e-15 -11.853 0.000727747 9.43111e-05 -0.25 -2.2 0.4 -3.23025e-16 -7.45443e-16 -6.36111e-15 -2.84217e-14 -8.3 1 -18.2779 7.93918 1.46967 0 -4.65 -1.42109e-14 -12.6882 -3.62531e-07 1.8097e-06 0 -3.3 0 -10.8378 2.46809e-06 -5.05173e-06 -0.5 -2.15 -0.8 -3.23025e-16 9.93923e-17 -6.36111e-15 -1.42109e-14 -7.75 -0.2 -6.69821 5.99128 0.452462 0 -3.8 -7.10543e-15 -6.22119 -0.00370213 -0.0021315 1.42109e-14 -3.4 0 -5.73137 -0.00323596 -0.000400203 -0.75 -1.75 -1.85 -3.23025e-16 -2.48481e-17 -6.36111e-15 0 -7.15 -1 -0.405221 5.47642 0.0800233 0 -3 -7.10543e-15 0.0129979 4.66735e-06 -4.98218e-10 -1.42109e-14 -2.35 1.42109e-14 0.0115529 1.34013e-06 -1.37126e-10 -5 17 0 2.8292 -1.14304 -5.43178 -6.45 -3.55271e-15 0 3.34276 6.97906 -0.285625 -6.45 0 -1.42109e-14 3.33705 -39.5712 49.1088 -1.42109e-14 -32.4 -2 5.34533 -41.1313 -4.80773 0 -25.65 2 -25.8176 -4.20201 0.809501 0.5 -1.5 2.65 6.13018 -21.1619 6.35071 0 -3.8 3.7 0.0971035 27.8378 -0.0223685 -1.42109e-14 -3 2.7 0.0935778 23.804 -0.0626281 -1.42109e-14 -1.9 1.6 -1.98785e-16 1.86361e-15 -0 -1.42109e-14 -8.3 1.9 11.8294 23.0166 -2.67613 -1.42109e-14 -4.5 -3.55271e-15 46.954 0.0425732 0.121802 7.10543e-15 -3.4 0 32.5054 0.0657013 0.0522048 0.25 -2.2 0.4 -1.98785e-16 1.86361e-15 -0 1.42109e-14 -8.3 1 42.5165 23.3002 -10.7227 0 -4.65 0 73.5496 0.0680597 0.00670138 0 -3.3 1.77636e-15 56.2788 0.0562243 -0.0689972 0.5 -2.15 -0.8 -1.98785e-16 1.86361e-15 -0 0 -7.75 -0.2 58.7072 16.4461 -12.7557 7.10543e-15 -3.8 3.55271e-15 51.7036 0.0740545 0.0153876 3.55271e-15 -3.4 1.77636e-15 35.7037 0.0572088 -0.0221039 0.75 -1.75 -1.85 -1.98785e-16 1.86361e-15 -0 0 -7.15 -1 56.2222 12.7989 -10.5773 0 -3 -3.55271e-15 67.6409 -0.0193982 -0.00208149 0 -2.35 0 49.2942 -0.0133762 0.015564 8 -3.55271e-15 0 154.191 -66.1447 156.86 0 -45 -1 -160.986 53.4565 172.771 0 -41 -2 0.882986 -17.8898 -19.517 -7.10543e-15 -7.5 12.5 -3.88251e-19 -1.94126e-19 -3.18055e-15 7.10543e-15 0 4 0.764613 4.33812 7.74032e-05 -8 -3.55271e-15 1.42109e-14 -116.18 -64.7408 -104.166 3.55271e-15 -45 -1 176.078 24.3262 -176.324 -3.55271e-15 -41 -2 -11.8165 -10.1776 4.67154 -1.42109e-14 -7.5 12.5 1.34347e-14 -54.6166 1.64783e-14 0 -8.67362e-19 4 -1.57572 54.6181 0.00747845 
